<svg width="14" height="13" viewBox="0 0 14 13" fill="none" xmlns="http://www.w3.org/2000/svg">
<g clip-path="url(#clip0_9103_3687)">
<path d="M10.9553 6.87135C9.27369 6.87135 7.91055 8.23865 7.91055 9.92536C7.91055 11.6121 9.27369 12.9794 10.9553 12.9794C12.6369 12.9794 14 11.612 14 9.92536C14 8.23865 12.6369 6.87135 10.9553 6.87135ZM3.04473 6.87162C1.3632 6.87162 0 8.23865 0 9.92536C0 11.6121 1.3632 12.9794 3.04473 12.9794C4.72637 12.9794 6.08962 11.612 6.08962 9.92536C6.08962 8.23865 4.72637 6.87162 3.04473 6.87162ZM10.0447 3.0539C10.0447 4.74061 8.68153 6.10808 7.00006 6.10808C5.31841 6.10808 3.95527 4.74061 3.95527 3.0539C3.95527 1.36736 5.31836 0 7 0C8.68148 0 10.0446 1.36747 10.0446 3.05385" fill="#F06A6A"/>
</g>
<defs>
<clipPath id="clip0_9103_3687">
<rect width="14" height="13" fill="white"/>
</clipPath>
</defs>
</svg>
