<svg width="14" height="14" viewBox="0 0 14 14" fill="none" xmlns="http://www.w3.org/2000/svg">
<g clip-path="url(#clip0_9103_3684)">
<path fill-rule="evenodd" clip-rule="evenodd" d="M1.40844 10.9833C1.27139 10.8162 1.30137 10.5702 1.46989 10.4349L3.06626 9.15317C3.20552 9.04137 3.40909 9.06661 3.52264 9.20445C4.60694 10.5209 5.75756 11.1303 7.03113 11.1303C8.2959 11.1303 9.41513 10.5295 10.452 9.22768C10.5632 9.08796 10.7663 9.05907 10.9076 9.1684L12.5258 10.4207C12.6966 10.5529 12.7311 10.7983 12.5969 10.9676C11.0639 12.9027 9.18693 13.9222 7.03113 13.9222C4.8816 13.9222 2.98788 12.909 1.40844 10.9833Z" fill="url(#paint0_linear_9103_3684)"/>
<path fill-rule="evenodd" clip-rule="evenodd" d="M7.10836 3.75842C7.04818 3.70513 6.95773 3.70511 6.8975 3.75835L3.42629 6.82774C3.2936 6.94508 3.09062 6.93145 2.97479 6.79744L1.62092 5.231C1.5067 5.09887 1.52036 4.89935 1.65153 4.784L6.79279 0.262839C6.91297 0.157157 7.09293 0.157181 7.21309 0.262896L12.3555 4.78748C12.4867 4.90294 12.5002 5.10268 12.3857 5.23476L11.0286 6.8004C10.9126 6.93418 10.7098 6.94757 10.5772 6.83021L7.10836 3.75842Z" fill="url(#paint1_linear_9103_3684)"/>
</g>
<defs>
<linearGradient id="paint0_linear_9103_3684" x1="1.16677" y1="7.03548" x2="12.8331" y2="7.03548" gradientUnits="userSpaceOnUse">
<stop offset="0.225962" stop-color="#6647F0"/>
<stop offset="0.793269" stop-color="#0091FF"/>
</linearGradient>
<linearGradient id="paint1_linear_9103_3684" x1="1.16671" y1="6.92248" x2="12.833" y2="6.92248" gradientUnits="userSpaceOnUse">
<stop stop-color="#FF02F0"/>
<stop offset="0.778846" stop-color="#F76808"/>
</linearGradient>
<clipPath id="clip0_9103_3684">
<rect width="14" height="14" fill="white"/>
</clipPath>
</defs>
</svg>
