<svg width="48" height="48" viewBox="0 0 48 48" fill="none" xmlns="http://www.w3.org/2000/svg">
<path d="M4.52248 34.631C4.08898 35.339 3.60148 36.161 3.18598 36.815C3.0082 37.1166 2.95574 37.476 3.03987 37.8159C3.124 38.1557 3.33802 38.4491 3.63598 38.633L12.324 43.979C12.4732 44.0713 12.6393 44.1334 12.8125 44.1615C12.9858 44.1896 13.1629 44.1833 13.3337 44.1429C13.5045 44.1025 13.6657 44.0288 13.808 43.926C13.9503 43.8233 14.0709 43.6934 14.163 43.544L14.175 43.5245C14.5215 42.944 14.97 42.188 15.4575 41.3795C18.8985 35.699 22.3575 36.395 28.602 39.3755L37.2165 43.472C37.3752 43.5476 37.5471 43.5911 37.7227 43.6002C37.8982 43.6093 38.0737 43.5837 38.2394 43.5249C38.405 43.4662 38.5574 43.3753 38.6879 43.2576C38.8184 43.1399 38.9245 42.9977 39 42.839L39.0165 42.803L43.149 33.4505C43.2894 33.1295 43.2981 32.7661 43.1733 32.4387C43.0484 32.1113 42.8 31.846 42.4815 31.7C40.6635 30.845 37.0485 29.1395 33.7935 27.569C22.086 21.8795 12.135 22.247 4.52248 34.631Z" fill="url(#paint0_linear_9433_197)"/>
<path d="M43.4775 13.3984C43.911 12.6904 44.3985 11.8684 44.814 11.2144C44.9918 10.9128 45.0442 10.5535 44.9601 10.2136C44.876 9.87369 44.662 9.58033 44.364 9.39644L35.6775 4.05044C35.532 3.95235 35.3687 3.88389 35.1968 3.84898C35.0249 3.81406 34.8477 3.81337 34.6756 3.84694C34.5034 3.88051 34.3395 3.94769 34.1933 4.04464C34.0471 4.14159 33.9214 4.2664 33.8235 4.41194C33.8056 4.43754 33.7891 4.46407 33.774 4.49144C33.426 5.07194 32.979 5.82794 32.49 6.63644C29.049 12.3169 25.59 11.6209 19.3455 8.64044L10.758 4.56494C10.5996 4.48938 10.4279 4.44578 10.2527 4.43663C10.0775 4.42747 9.9022 4.45295 9.73683 4.5116C9.57147 4.57025 9.41929 4.66093 9.28899 4.77844C9.1587 4.89595 9.05284 5.03799 8.97749 5.19644L8.96099 5.23244L4.82399 14.5894C4.68357 14.9105 4.67484 15.2738 4.79968 15.6012C4.92453 15.9286 5.17296 16.1939 5.49149 16.3399C7.30949 17.1949 10.9245 18.8989 14.1795 20.4694C25.914 26.1499 35.865 25.7689 43.4775 13.3984Z" fill="url(#paint1_linear_9433_197)"/>
<defs>
<linearGradient id="paint0_linear_9433_197" x1="42.9105" y1="46.748" x2="16.6275" y2="31.6445" gradientUnits="userSpaceOnUse">
<stop offset="0.18" stop-color="#0052CC"/>
<stop offset="1" stop-color="#2684FF"/>
</linearGradient>
<linearGradient id="paint1_linear_9433_197" x1="5.08199" y1="1.28594" x2="31.3725" y2="16.3954" gradientUnits="userSpaceOnUse">
<stop offset="0.18" stop-color="#0052CC"/>
<stop offset="1" stop-color="#2684FF"/>
</linearGradient>
</defs>
</svg>
