<svg width="16" height="16" viewBox="0 0 16 16" fill="none" xmlns="http://www.w3.org/2000/svg">
<g clip-path="url(#clip0_9033_794)">
<path d="M12.2101 3.78955H3.78906V12.2106H12.2101V3.78955Z" fill="white"/>
<path d="M12.2101 16L15.9996 12.2105L14.1048 11.8872L12.2101 12.2105L11.8643 13.9436L12.2101 16Z" fill="#EA4335"/>
<path d="M0 12.2105V14.7368C0 15.4347 0.56525 16 1.26312 16H3.7895L4.17856 14.1052L3.7895 12.2105L1.72494 11.8872L0 12.2105Z" fill="#188038"/>
<path d="M15.9996 3.7895V1.26312C15.9996 0.56525 15.4343 0 14.7364 0H12.2101C11.9796 0.93975 11.8643 1.63133 11.8643 2.07475C11.8643 2.51812 11.9795 3.08971 12.2101 3.7895C13.0482 4.0295 13.6798 4.1495 14.1048 4.1495C14.5299 4.1495 15.1614 4.02954 15.9996 3.7895Z" fill="#1967D2"/>
<path d="M16.0004 3.78955H12.2109V12.2106H16.0004V3.78955Z" fill="#FBBC04"/>
<path d="M12.2101 12.2104H3.78906V15.9999H12.2101V12.2104Z" fill="#34A853"/>
<path d="M12.2105 0H1.26319C0.56525 0 0 0.56525 0 1.26312V12.2105H3.7895V3.7895H12.2105V0Z" fill="#4285F4"/>
<path d="M5.51686 10.3222C5.20211 10.1096 4.98417 9.79906 4.86523 9.38843L5.5958 9.08743C5.66205 9.34006 5.77784 9.53585 5.94317 9.67481C6.10736 9.81374 6.30736 9.88218 6.54105 9.88218C6.77996 9.88218 6.98521 9.80954 7.1568 9.66424C7.32842 9.51899 7.41473 9.33374 7.41473 9.10956C7.41473 8.88006 7.32421 8.69268 7.14317 8.54743C6.96211 8.40218 6.73473 8.32956 6.46317 8.32956H6.04105V7.60643H6.41998C6.65365 7.60643 6.85048 7.54324 7.01048 7.41687C7.17048 7.29062 7.25048 7.11793 7.25048 6.89793C7.25048 6.70218 7.17892 6.54637 7.0358 6.42956C6.89267 6.31268 6.71155 6.25374 6.49155 6.25374C6.2768 6.25374 6.1063 6.31062 5.97998 6.42531C5.85371 6.54033 5.75879 6.6856 5.70417 6.84743L4.98105 6.54637C5.0768 6.27481 5.25261 6.03481 5.51048 5.82743C5.76836 5.62006 6.09786 5.51587 6.49786 5.51587C6.79367 5.51587 7.05998 5.57274 7.2958 5.68743C7.53155 5.80218 7.7168 5.96112 7.85048 6.16324C7.98423 6.36637 8.05048 6.59374 8.05048 6.84637C8.05048 7.10424 7.98842 7.32218 7.86423 7.50112C7.74005 7.68006 7.58736 7.81687 7.4063 7.91268V7.95581C7.64008 8.05221 7.84316 8.21053 7.99367 8.41374C8.1463 8.61899 8.22317 8.86424 8.22317 9.15062C8.22317 9.43687 8.15048 9.69268 8.00523 9.91687C7.85998 10.1411 7.65898 10.3179 7.40417 10.4464C7.14842 10.5748 6.86105 10.6401 6.54211 10.6401C6.17261 10.6411 5.83161 10.5348 5.51686 10.3222ZM10.0041 6.69687L9.20205 7.27687L8.80098 6.66849L10.2399 5.63056H10.7915V10.5264H10.0041V6.69687Z" fill="#4285F4"/>
</g>
<defs>
<clipPath id="clip0_9033_794">
<rect width="16" height="16" fill="white"/>
</clipPath>
</defs>
</svg>
