<svg width="14" height="14" viewBox="0 0 14 14" fill="none" xmlns="http://www.w3.org/2000/svg">
<path opacity="0.987" fill-rule="evenodd" clip-rule="evenodd" d="M6.30784 0.928156C6.94222 0.857281 7.31759 0.857281 7.99922 0.928156C9.20578 1.10674 10.3243 1.66446 11.193 2.52066C10.606 3.07552 10.0266 3.6385 9.45522 4.20941C8.36088 3.28191 7.13938 3.06782 5.79072 3.56716C4.80138 4.02216 4.11247 4.75949 3.72397 5.77916C3.0891 5.30651 2.46251 4.82285 1.84447 4.32841C1.80152 4.3058 1.75246 4.29752 1.70447 4.30478C2.68622 2.41186 4.22038 1.28603 6.30697 0.927281" fill="#F44336"/>
<path opacity="0.997" fill-rule="evenodd" clip-rule="evenodd" d="M1.70273 4.30552C1.75231 4.29794 1.79927 4.30582 1.8436 4.32915C2.46164 4.82359 3.08824 5.30725 3.7231 5.7799C3.6232 6.1772 3.56022 6.58288 3.53498 6.99177C3.55656 7.38727 3.61927 7.77548 3.7231 8.1564L1.74998 9.72702C0.890726 7.93152 0.874976 6.12436 1.70273 4.30552Z" fill="#FFC107"/>
<path opacity="0.999" fill-rule="evenodd" clip-rule="evenodd" d="M11.0994 11.6279C10.485 11.0861 9.84182 10.5779 9.17263 10.1054C9.84346 9.63175 10.2506 8.98191 10.3941 8.15591H7.10675V5.87304C9.00258 5.85729 10.8975 5.87333 12.7916 5.92116C13.151 7.87241 12.7359 9.63175 11.5465 11.1992C11.4051 11.3495 11.2553 11.4926 11.0994 11.6279Z" fill="#448AFF"/>
<path opacity="0.993" fill-rule="evenodd" clip-rule="evenodd" d="M3.72313 8.15625C4.44063 9.9395 5.75604 10.7719 7.66938 10.6535C8.20648 10.5913 8.72143 10.4037 9.17263 10.1058C9.84229 10.5794 10.4845 11.0869 11.0994 11.6283C10.1252 12.5036 8.8831 13.0231 7.57575 13.1018C7.27872 13.1255 6.98028 13.1255 6.68325 13.1018C4.45608 12.8393 2.81167 11.714 1.75 9.726L3.72313 8.15625Z" fill="#43A047"/>
</svg>
