<svg width="14" height="14" viewBox="0 0 14 14" fill="none" xmlns="http://www.w3.org/2000/svg">
<g clip-path="url(#clip0_9103_3682)">
<path d="M6.64008 0.359867C2.97325 0.359867 0 3.33312 0 6.99995C0 10.6668 2.97325 13.64 6.64008 13.64C10.3069 13.64 13.2784 10.6668 13.2784 6.99995C13.2801 6.12092 13.106 5.25043 12.7662 4.4397L10.8978 6.30812C10.934 6.53387 10.9562 6.76428 10.9562 6.99995C10.9562 7.85343 10.7031 8.68774 10.229 9.39739C9.75481 10.107 9.08089 10.6602 8.29241 10.9868C7.50392 11.3135 6.63628 11.399 5.79918 11.2326C4.96209 11.0662 4.19314 10.6553 3.58956 10.0519C2.98598 9.44846 2.57488 8.67963 2.40823 7.84258C2.24158 7.00553 2.32688 6.13786 2.65333 5.34929C2.97978 4.56071 3.53273 3.88664 4.24225 3.41231C4.95178 2.93798 5.78602 2.68468 6.6395 2.68445C7.51392 2.68445 8.32475 2.94578 9.00433 3.39262L10.6709 1.72603C9.5147 0.83865 8.09758 0.358346 6.64008 0.359867ZM12.2832 0.800867C12.1129 0.800867 11.9432 0.8662 11.8137 0.9957C10.0819 2.72587 8.35139 4.45681 6.622 6.18853L5.59767 5.16478C5.47301 5.04046 5.30414 4.97065 5.12808 4.97065C4.95203 4.97065 4.78316 5.04046 4.6585 5.16478L3.62308 6.19903C3.49876 6.32369 3.42895 6.49256 3.42895 6.66862C3.42895 6.84467 3.49876 7.01354 3.62308 7.1382L6.05325 9.56662C6.13021 9.64387 6.22166 9.70517 6.32237 9.74699C6.42307 9.78882 6.53104 9.81035 6.64008 9.81035C6.74913 9.81035 6.8571 9.78882 6.9578 9.74699C7.0585 9.70517 7.14996 9.64387 7.22692 9.56662L13.8052 2.9872C13.867 2.92563 13.9161 2.85245 13.9495 2.77187C13.983 2.69128 14.0003 2.60488 14.0003 2.51762C14.0003 2.43035 13.983 2.34395 13.9495 2.26337C13.9161 2.18278 13.867 2.1096 13.8052 2.04803L12.7522 0.9957C12.6278 0.871267 12.4592 0.801207 12.2832 0.800867Z" fill="#2684FC"/>
</g>
<defs>
<clipPath id="clip0_9103_3682">
<rect width="14" height="14" fill="white"/>
</clipPath>
</defs>
</svg>
