<svg width="48" height="48" viewBox="0 0 48 48" fill="none" xmlns="http://www.w3.org/2000/svg">
<path d="M36.328 15.8599V10.1679C37.081 9.81535 37.7187 9.2566 38.1672 8.55645C38.6156 7.8563 38.8566 7.0434 38.862 6.21195V6.07795C38.8588 4.9155 38.3958 3.80153 37.574 2.97937C36.7522 2.1572 35.6384 1.69364 34.476 1.68995H34.342C33.1799 1.69364 32.0664 2.15692 31.2447 2.97866C30.423 3.80039 29.9597 4.91385 29.956 6.07595V6.20995C29.9606 7.03648 30.1979 7.84499 30.6408 8.54288C31.0836 9.24076 31.7141 9.7998 32.46 10.1559L32.486 10.1679V15.8719C30.3091 16.2026 28.2596 17.1069 26.548 18.4919L26.572 18.4719L10.916 6.28195C11.2141 5.16526 11.1156 3.97976 10.6373 2.92757C10.1591 1.87537 9.3307 1.02163 8.29339 0.511907C7.25607 0.00218254 6.07408 -0.131966 4.94892 0.132333C3.82376 0.396632 2.82511 1.04302 2.12323 1.96127C1.42136 2.87953 1.05971 4.01282 1.09995 5.1679C1.1402 6.32298 1.57984 7.42834 2.34393 8.29553C3.10801 9.16271 4.14923 9.73802 5.29005 9.92337C6.43087 10.1087 7.60067 9.89263 8.59999 9.31195L8.57599 9.32395L23.97 21.3059C22.6118 23.3475 21.8893 25.7459 21.894 28.1979C21.888 30.7829 22.6901 33.3052 24.188 35.4119L24.162 35.372L19.478 40.0579C19.1028 39.9378 18.7119 39.8738 18.318 39.868H18.314C17.5098 39.868 16.7237 40.1064 16.055 40.5532C15.3864 41 14.8652 41.635 14.5575 42.378C14.2497 43.1209 14.1692 43.9385 14.3261 44.7272C14.483 45.5159 14.8703 46.2404 15.4389 46.809C16.0075 47.3777 16.732 47.7649 17.5208 47.9218C18.3095 48.0787 19.127 47.9982 19.87 47.6904C20.6129 47.3827 21.248 46.8615 21.6947 46.1929C22.1415 45.5242 22.38 44.7381 22.38 43.9339C22.3739 43.5295 22.3064 43.1282 22.18 42.7439L22.19 42.7719L26.824 38.138C28.3344 39.2904 30.0877 40.0833 31.9507 40.4562C33.8136 40.8291 35.7371 40.7723 37.5747 40.29C39.4124 39.8077 41.1158 38.9126 42.5555 37.6729C43.9952 36.4332 45.1332 34.8815 45.883 33.1358C46.6327 31.3902 46.9745 29.4965 46.8823 27.5988C46.7901 25.7012 46.2663 23.8495 45.3508 22.1848C44.4353 20.52 43.1522 19.086 41.5991 17.9917C40.046 16.8974 38.2637 16.1718 36.388 15.8699L36.316 15.8599H36.328ZM34.4 34.616C33.1327 34.6124 31.8948 34.2334 30.8428 33.5267C29.7908 32.8201 28.9717 31.8176 28.4891 30.6457C28.0065 29.4739 27.882 28.1853 28.1312 26.9428C28.3805 25.7002 28.9924 24.5594 29.8897 23.6644C30.7869 22.7693 31.9293 22.1603 33.1725 21.9141C34.4156 21.6679 35.7039 21.7957 36.8745 22.2812C38.0451 22.7667 39.0456 23.5883 39.7496 24.6421C40.4536 25.6958 40.8296 26.9346 40.83 28.2019V28.2059C40.8303 29.0483 40.6645 29.8825 40.3423 30.6608C40.02 31.4391 39.5476 32.1463 38.952 32.7419C38.3563 33.3376 37.6491 33.81 36.8708 34.1322C36.0925 34.4545 35.2584 34.6202 34.416 34.6199L34.4 34.616Z" fill="#FF7A59"/>
</svg>
