<svg width="14" height="14" viewBox="0 0 14 14" fill="none" xmlns="http://www.w3.org/2000/svg">
<g clip-path="url(#clip0_9095_3236)">
<path d="M7.31162 5.78594C6.62529 6.43398 6.196 7.35273 6.196 8.37266C6.196 9.17383 6.46123 9.91211 6.90693 10.5055L5.55342 11.8672C5.43311 11.8234 5.30459 11.7988 5.17061 11.7988C4.87529 11.7988 4.59912 11.9137 4.39131 12.1215C4.1835 12.3293 4.06865 12.6082 4.06865 12.9035C4.06865 13.1988 4.1835 13.475 4.39131 13.6828C4.59912 13.8906 4.87803 14 5.17061 14C5.46592 14 5.74209 13.8934 5.95264 13.6828C6.16045 13.475 6.27529 13.1961 6.27529 12.9035C6.27529 12.7887 6.25889 12.6793 6.22334 12.5727L7.59053 11.2C8.19209 11.6621 8.94131 11.9355 9.75889 11.9355C11.7249 11.9355 13.3136 10.3414 13.3136 8.37539C13.3136 6.59258 12.0093 5.11602 10.3003 4.85625V3.17188C10.7788 2.96953 11.0714 2.52109 11.0714 1.99883C11.0714 1.28516 10.4999 0.689063 9.78623 0.689063C9.07256 0.689063 8.50928 1.28516 8.50928 1.99883C8.50928 2.52109 8.80185 2.96953 9.28037 3.17188V4.84531C8.86475 4.90273 8.471 5.02852 8.11279 5.21719C7.35811 4.6457 4.8999 2.87383 3.49443 1.80469C3.52725 1.68437 3.54912 1.55859 3.54912 1.42734C3.54912 0.639844 2.90654 0 2.11631 0C1.32881 0 0.688965 0.639844 0.688965 1.42734C0.688965 2.21758 1.32881 2.85742 2.11631 2.85742C2.38428 2.85742 2.63311 2.77813 2.84912 2.64961L7.31162 5.78594ZM9.75889 10.2594C8.71709 10.2594 7.87217 9.41445 7.87217 8.37266C7.87217 7.33086 8.71709 6.48594 9.75889 6.48594C10.8007 6.48594 11.6456 7.33086 11.6456 8.37266C11.6456 9.41445 10.8007 10.2594 9.75889 10.2594Z" fill="#F77656"/>
</g>
<defs>
<clipPath id="clip0_9095_3236">
<rect width="14" height="14" fill="white"/>
</clipPath>
</defs>
</svg>
