<svg width="14" height="14" viewBox="0 0 14 14" fill="none" xmlns="http://www.w3.org/2000/svg">
<circle cx="7" cy="7" r="7" fill="#5E6AD2"/>
<g clip-path="url(#clip0_9103_3674)">
<path d="M2.31928 6.00832L7.99166 11.6807C8.07447 11.7635 8.03451 11.9041 7.91939 11.9256C7.72545 11.9619 7.52954 11.9866 7.33267 11.9997C7.31167 12.001 7.29063 11.9978 7.27096 11.9904C7.25129 11.9829 7.23344 11.9713 7.21861 11.9564L2.04361 6.78137C2.02868 6.76654 2.01709 6.74869 2.00962 6.72902C2.00215 6.70935 1.99897 6.68831 2.00029 6.6673C2.01357 6.46828 2.0385 6.2725 2.07436 6.08059C2.09584 5.96547 2.23646 5.92551 2.31928 6.00832ZM2.15943 8.30504C2.12154 8.16387 2.28834 8.0748 2.3917 8.17816L5.82178 11.6083C5.92517 11.7116 5.83611 11.8784 5.69494 11.8405C3.97502 11.3794 2.6206 10.025 2.15943 8.30504ZM2.65654 4.50641C2.70471 4.42301 2.81853 4.4102 2.88662 4.47832L9.5217 11.1133C9.58982 11.1814 9.57705 11.2952 9.49357 11.3434C9.35275 11.4247 9.20805 11.4991 9.05998 11.5662C9.00412 11.5916 8.93849 11.5788 8.89514 11.5354L2.46455 5.10496C2.42115 5.06152 2.40834 4.99598 2.43369 4.94008C2.50089 4.79201 2.57528 4.64731 2.65658 4.50648M6.99451 2C9.75896 2 12 4.24102 12 7.00547C12 8.47305 11.3684 9.79305 10.3622 10.7086C10.3042 10.7615 10.2151 10.758 10.1595 10.7025L3.29752 3.84047C3.24201 3.78492 3.23853 3.69582 3.29135 3.63773C4.20693 2.63156 5.52697 2 6.99451 2Z" fill="#E8EAF9"/>
</g>
<defs>
<clipPath id="clip0_9103_3674">
<rect width="10" height="10" fill="white" transform="translate(2 2)"/>
</clipPath>
</defs>
</svg>
