<svg width="48" height="48" viewBox="0 0 48 48" fill="none" xmlns="http://www.w3.org/2000/svg">
<path d="M0 12C0 5.37258 5.37258 0 12 0H36C42.6274 0 48 5.37258 48 12V36C48 42.6274 42.6274 48 36 48H12C5.37258 48 0 42.6274 0 36V12Z" fill="#1868DB"/>
<path d="M38 22.444H29.812L36.904 18.35L35.346 15.65L28.256 19.746L32.348 12.654L29.65 11.096L25.56 18.186V10H22.44V18.188L18.348 11.096L15.652 12.654L19.744 19.744L12.654 15.652L11.096 18.348L18.188 22.442H10V25.556H18.186L11.096 29.65L12.654 32.35L19.744 28.256L15.65 35.346L18.35 36.904L22.442 29.812V38H25.556V29.812L29.65 36.904L32.348 35.346L28.254 28.254L35.344 32.348L36.902 29.65L29.812 25.558H37.998L38 22.444ZM24 28.236C22.8723 28.236 21.7908 27.788 20.9934 26.9906C20.196 26.1932 19.748 25.1117 19.748 23.984C19.748 22.8563 20.196 21.7748 20.9934 20.9774C21.7908 20.18 22.8723 19.732 24 19.732C25.1277 19.732 26.2092 20.18 27.0066 20.9774C27.804 21.7748 28.252 22.8563 28.252 23.984C28.252 25.1117 27.804 26.1932 27.0066 26.9906C26.2092 27.788 25.1277 28.236 24 28.236Z" fill="white"/>
</svg>
