<svg width="14" height="14" viewBox="0 0 14 14" fill="none" xmlns="http://www.w3.org/2000/svg">
<g clip-path="url(#clip0_9103_3663)">
<mask id="mask0_9103_3663" style="mask-type:luminance" maskUnits="userSpaceOnUse" x="0" y="0" width="14" height="14">
<path d="M14 0H0V14H14V0Z" fill="white"/>
</mask>
<g mask="url(#mask0_9103_3663)">
<path d="M4.81722 9.18235C4.21451 9.78505 3.23733 9.78505 2.63462 9.18235L0.45203 6.99975C-0.150677 6.39705 -0.150677 5.41991 0.45203 4.81721L2.63462 2.63464C3.23733 2.03194 4.21451 2.03194 4.81722 2.63464L6.99982 4.81721C7.60252 5.41991 7.60252 6.39705 6.99982 6.99975L4.81722 9.18235Z" fill="url(#paint0_linear_9103_3663)"/>
<path d="M4.81722 9.18235C4.21451 9.78505 3.23733 9.78505 2.63462 9.18235L0.45203 6.99975C-0.150677 6.39705 -0.150677 5.41991 0.45203 4.81721L2.63462 2.63464C3.23733 2.03194 4.21451 2.03194 4.81722 2.63464L6.99982 4.81721C7.60252 5.41991 7.60252 6.39705 6.99982 6.99975L4.81722 9.18235Z" fill="url(#paint1_linear_9103_3663)"/>
<path d="M0.452148 6.99994C1.05487 7.60264 2.03208 7.60264 2.6348 6.99994L9.18281 0.45204C9.78551 -0.150677 10.7627 -0.15068 11.3655 0.452033L13.5481 2.63465C14.1508 3.23737 14.1508 4.21456 13.5481 4.81728L7.00009 11.3652C6.39739 11.9679 5.42017 11.9679 4.81744 11.3652L0.452148 6.99994Z" fill="url(#paint2_linear_9103_3663)"/>
<path d="M0.452148 6.99994C1.05487 7.60264 2.03208 7.60264 2.6348 6.99994L9.18281 0.45204C9.78551 -0.150677 10.7627 -0.15068 11.3655 0.452033L13.5481 2.63465C14.1508 3.23737 14.1508 4.21456 13.5481 4.81728L7.00009 11.3652C6.39739 11.9679 5.42017 11.9679 4.81744 11.3652L0.452148 6.99994Z" fill="url(#paint3_linear_9103_3663)"/>
<path d="M2.63452 9.18251C3.23724 9.78527 4.21445 9.78527 4.81718 9.18251L9.18248 4.81727C9.78524 4.21456 10.7624 4.21456 11.3651 4.81727L13.5478 6.99991C14.1506 7.60261 14.1506 8.57981 13.5478 9.18251L9.18248 13.5478C8.57978 14.1505 7.60253 14.1505 6.99983 13.5478L2.63452 9.18251Z" fill="url(#paint4_linear_9103_3663)"/>
<path d="M2.63452 9.18251C3.23724 9.78527 4.21445 9.78527 4.81718 9.18251L9.18248 4.81727C9.78524 4.21456 10.7624 4.21456 11.3651 4.81727L13.5478 6.99991C14.1506 7.60261 14.1506 8.57981 13.5478 9.18251L9.18248 13.5478C8.57978 14.1505 7.60253 14.1505 6.99983 13.5478L2.63452 9.18251Z" fill="url(#paint5_linear_9103_3663)"/>
</g>
</g>
<defs>
<linearGradient id="paint0_linear_9103_3663" x1="3.72589" y1="2.18263" x2="1.25871" y2="7.45324" gradientUnits="userSpaceOnUse">
<stop stop-color="#8752E0"/>
<stop offset="1" stop-color="#541278"/>
</linearGradient>
<linearGradient id="paint1_linear_9103_3663" x1="4.88852" y1="6.45725" x2="2.88203" y2="4.48724" gradientUnits="userSpaceOnUse">
<stop offset="0.12172" stop-color="#3D0D59"/>
<stop offset="1" stop-color="#7034B0" stop-opacity="0"/>
</linearGradient>
<linearGradient id="paint2_linear_9103_3663" x1="10.716" y1="-1.93634e-05" x2="5.75017" y2="11.9112" gradientUnits="userSpaceOnUse">
<stop stop-color="#DB45E0"/>
<stop offset="1" stop-color="#6C0F71"/>
</linearGradient>
<linearGradient id="paint3_linear_9103_3663" x1="10.716" y1="-1.93634e-05" x2="5.75017" y2="11.9112" gradientUnits="userSpaceOnUse">
<stop stop-color="#DB45E0"/>
<stop offset="0.677403" stop-color="#A829AE"/>
<stop offset="1" stop-color="#8F28B3"/>
</linearGradient>
<linearGradient id="paint4_linear_9103_3663" x1="10.5001" y1="4.37484" x2="8.16684" y2="13.9994" gradientUnits="userSpaceOnUse">
<stop stop-color="#3DCBFF"/>
<stop offset="1" stop-color="#00479E"/>
</linearGradient>
<linearGradient id="paint5_linear_9103_3663" x1="10.6262" y1="4.62374" x2="6.13877" y2="13.3796" gradientUnits="userSpaceOnUse">
<stop stop-color="#3DCBFF"/>
<stop offset="1" stop-color="#4A40D4"/>
</linearGradient>
<clipPath id="clip0_9103_3663">
<rect width="14" height="14" fill="white"/>
</clipPath>
</defs>
</svg>
