<svg width="14" height="12" viewBox="0 0 14 12" fill="none" xmlns="http://www.w3.org/2000/svg">
<g clip-path="url(#clip0_9103_3640)">
<path d="M13.6542 3.83588L13.2368 3.41846L6.00314 10.6521L6.42057 11.0696L13.6542 3.83588Z" fill="url(#paint0_linear_9103_3640)"/>
<mask id="mask0_9103_3640" style="mask-type:luminance" maskUnits="userSpaceOnUse" x="4" y="10" width="3" height="2">
<path d="M6.42054 11.0702L5.58569 10.2354L4.75085 11.0702L5.58569 11.905L6.42054 11.0702Z" fill="white"/>
</mask>
<g mask="url(#mask0_9103_3640)">
<path d="M5.58543 11.4155C6.23749 11.4155 6.76608 10.8869 6.76608 10.2348C6.76608 9.58279 6.23749 9.0542 5.58543 9.0542C4.93338 9.0542 4.40479 9.58279 4.40479 10.2348C4.40479 10.8869 4.93338 11.4155 5.58543 11.4155Z" fill="url(#paint1_radial_9103_3640)"/>
</g>
<mask id="mask1_9103_3640" style="mask-type:luminance" maskUnits="userSpaceOnUse" x="11" y="1" width="4" height="3">
<path d="M11.9844 2.16674L13.6541 3.83643L14.4889 3.00158L12.8192 1.3319L11.9844 2.16674Z" fill="white"/>
</mask>
<g mask="url(#mask1_9103_3640)">
<path d="M12.8193 4.18161C13.4714 4.18161 14 3.65301 14 3.00096C14 2.34891 13.4714 1.82031 12.8193 1.82031C12.1673 1.82031 11.6387 2.34891 11.6387 3.00096C11.6387 3.65301 12.1673 4.18161 12.8193 4.18161Z" fill="url(#paint2_radial_9103_3640)"/>
</g>
<path d="M4.75079 11.0698L5.16821 10.6523L0.763186 6.24732L0.345764 6.66474L4.75079 11.0698Z" fill="url(#paint3_linear_9103_3640)"/>
<mask id="mask2_9103_3640" style="mask-type:luminance" maskUnits="userSpaceOnUse" x="-1" y="4" width="4" height="3">
<path d="M1.18067 4.16039L-0.489014 5.83008L0.34583 6.66492L2.01552 4.99523L1.18067 4.16039Z" fill="white"/>
</mask>
<g mask="url(#mask2_9103_3640)">
<path d="M1.18065 7.01071C1.8327 7.01071 2.36129 6.48211 2.36129 5.83006C2.36129 5.17801 1.8327 4.64941 1.18065 4.64941C0.528594 4.64941 0 5.17801 0 5.83006C0 6.48211 0.528594 7.01071 1.18065 7.01071Z" fill="url(#paint4_radial_9103_3640)"/>
</g>
<path d="M2.33969 3.00137L0.345889 4.99518C0.115353 5.22571 0.115353 5.59948 0.345889 5.83002L5.16834 10.6525C5.39887 10.883 5.77265 10.883 6.00318 10.6525L7.99698 8.65867C8.22752 8.42813 8.22752 8.05436 7.99698 7.82382L3.17453 3.00137C2.944 2.77084 2.57023 2.77084 2.33969 3.00137Z" fill="#195ABD"/>
<path d="M13.6544 2.1666L11.6606 0.172793C11.4301 -0.0577425 11.0563 -0.0577428 10.8257 0.172793L3.17465 7.82389C2.94411 8.05442 2.94411 8.4282 3.17465 8.65873L5.16845 10.6525C5.39899 10.8831 5.77276 10.8831 6.00329 10.6525L13.6544 3.00144C13.8849 2.7709 13.8849 2.39713 13.6544 2.1666Z" fill="url(#paint5_linear_9103_3640)"/>
</g>
<defs>
<linearGradient id="paint0_linear_9103_3640" x1="9.61768" y1="7.03259" x2="10.0349" y2="7.44983" gradientUnits="userSpaceOnUse">
<stop stop-opacity="0.13"/>
<stop offset="0.994" stop-opacity="0"/>
</linearGradient>
<radialGradient id="paint1_radial_9103_3640" cx="0" cy="0" r="1" gradientUnits="userSpaceOnUse" gradientTransform="translate(5.58543 10.2349) rotate(45) scale(1.18065)">
<stop offset="0.5" stop-opacity="0.13"/>
<stop offset="0.994" stop-opacity="0"/>
</radialGradient>
<radialGradient id="paint2_radial_9103_3640" cx="0" cy="0" r="1" gradientUnits="userSpaceOnUse" gradientTransform="translate(12.8193 3.00096) rotate(-135) scale(1.18065)">
<stop offset="0.5" stop-opacity="0.13"/>
<stop offset="0.994" stop-opacity="0"/>
</radialGradient>
<linearGradient id="paint3_linear_9103_3640" x1="2.97243" y1="8.44315" x2="2.55518" y2="8.8604" gradientUnits="userSpaceOnUse">
<stop stop-opacity="0.13"/>
<stop offset="0.994" stop-opacity="0"/>
</linearGradient>
<radialGradient id="paint4_radial_9103_3640" cx="0" cy="0" r="1" gradientUnits="userSpaceOnUse" gradientTransform="translate(1.18357 5.83307) rotate(-45) scale(1.18047)">
<stop offset="0.5" stop-opacity="0.13"/>
<stop offset="0.994" stop-opacity="0"/>
</radialGradient>
<linearGradient id="paint5_linear_9103_3640" x1="4.17154" y1="9.65563" x2="12.6575" y2="1.16969" gradientUnits="userSpaceOnUse">
<stop stop-color="#2987E6"/>
<stop offset="0.994" stop-color="#58C1F5"/>
</linearGradient>
<clipPath id="clip0_9103_3640">
<rect width="14" height="11.4151" fill="white"/>
</clipPath>
</defs>
</svg>
