<svg width="14" height="15" viewBox="0 0 14 15" fill="none" xmlns="http://www.w3.org/2000/svg">
<path d="M2.41436 2.62996C2.8686 3.00887 3.03817 2.98009 3.89066 2.92173L11.9271 2.42611C12.0982 2.42611 11.9559 2.25024 11.8991 2.22147L10.5644 1.23022C10.3085 1.02637 9.96778 0.792149 9.31518 0.850505L1.53309 1.43406C1.24996 1.46284 1.19318 1.60913 1.30596 1.72584L2.41436 2.62996ZM2.89661 4.5549V13.2443C2.89661 13.712 3.12373 13.8862 3.63553 13.8574L12.4669 13.3322C12.9779 13.3035 13.0347 12.9821 13.0347 12.6024V3.97134C13.0347 3.59243 12.8932 3.38778 12.5805 3.41736L3.35085 3.97134C3.01017 4.00012 2.89661 4.17518 2.89661 4.5549ZM11.616 5.02094C11.672 5.28314 11.616 5.54614 11.3593 5.57572L10.9338 5.66286V12.078C10.5644 12.2826 10.2237 12.3985 9.93977 12.3985C9.48553 12.3985 9.37196 12.2531 9.03128 11.8158L6.24746 7.3248V11.6703L7.12873 11.8741C7.12873 11.8741 7.12873 12.3985 6.4178 12.3985L4.45847 12.5153C4.40169 12.3985 4.45847 12.1076 4.65759 12.0492L5.16862 11.9037V6.15848L4.45847 6.10012C4.40169 5.83712 4.54403 5.45821 4.9415 5.42863L7.04317 5.28314L9.93977 9.83329V5.80835L9.20084 5.72121C9.14484 5.39986 9.37196 5.16723 9.65587 5.13765L11.616 5.02094ZM0.879716 0.646659L8.97372 0.0343236C9.967 -0.0536097 10.2229 0.00554537 10.8483 0.471592L13.4314 2.33818C13.8577 2.65873 14 2.74587 14 3.096V13.3322C14 13.9742 13.7729 14.3531 12.9779 14.4114L3.57798 14.995C2.98139 15.0238 2.69748 14.9366 2.3848 14.5281L0.482249 11.9909C0.141563 11.524 0 11.1747 0 10.7654V1.66669C0 1.14228 0.226346 0.705015 0.879716 0.646659Z" fill="black"/>
</svg>
