<svg width="16" height="16" viewBox="0 0 16 16" fill="none" xmlns="http://www.w3.org/2000/svg">
<path d="M10.4408 2.83392L2.35809 7.95725L1.66309 6.86059V5.91559C1.66309 5.57159 1.83742 5.25092 2.12609 5.06359L6.82442 2.01492C7.54009 1.55059 8.46242 1.55025 9.17809 2.01459L10.4408 2.83392Z" fill="#40C4FF"/>
<path d="M9.10606 1.97021C9.1304 1.98455 9.1544 1.99955 9.1784 2.01521L12.8451 4.39388L3.7534 10.1565L2.3584 7.95555L9.03073 3.71788C9.66306 3.31655 9.69073 2.41355 9.10606 1.97021Z" fill="#1976D2"/>
<path d="M7.38026 11.2571L3.75293 10.1567L11.4649 5.26805C12.1146 4.85638 12.1129 3.90805 11.4619 3.49872L11.4273 3.47705L11.5273 3.53905L13.8743 5.06172C14.1629 5.24905 14.3373 5.56972 14.3373 5.91372V6.82838L7.38026 11.2571Z" fill="#0D47A1"/>
<path d="M6.96171 14.3334H12.136C13.3514 14.3334 14.3367 13.348 14.3367 12.1327V5.93237C14.3367 6.29137 14.152 6.62537 13.848 6.81637L6.15137 11.649C5.73604 11.9097 5.48438 12.3657 5.48438 12.8557C5.48438 13.672 6.14571 14.3334 6.96171 14.3334Z" fill="#29B6F6"/>
<path d="M9.06578 14.3331H3.86278C2.64744 14.3331 1.66211 13.3477 1.66211 12.1324V5.92773C1.66211 6.2864 1.84611 6.61973 2.14911 6.81073L9.83811 11.6584C10.2591 11.9237 10.5144 12.3867 10.5144 12.8844C10.5144 13.6844 9.86578 14.3331 9.06578 14.3331Z" fill="url(#paint0_radial_9033_803)"/>
<path d="M9.06578 14.3331H3.86278C2.64744 14.3331 1.66211 13.3477 1.66211 12.1324V5.92773C1.66211 6.2864 1.84611 6.61973 2.14911 6.81073L9.83811 11.6584C10.2591 11.9237 10.5144 12.3867 10.5144 12.8844C10.5144 13.6844 9.86578 14.3331 9.06578 14.3331Z" fill="#80D8FF"/>
<path d="M3.76104 12.0788C3.29504 12.0788 2.91271 11.9331 2.61371 11.6414C2.31471 11.3501 2.16504 10.9698 2.16504 10.5004C2.16504 10.0051 2.31671 9.60411 2.62037 9.29811C2.92404 8.99211 3.32137 8.83911 3.81271 8.83911C4.27704 8.83911 4.65471 8.98544 4.94637 9.27844C5.23937 9.57144 5.38604 9.95744 5.38604 10.4368C5.38604 10.9294 5.23404 11.3264 4.93071 11.6281C4.62871 11.9288 4.23904 12.0788 3.76104 12.0788ZM3.77471 11.4604C4.02871 11.4604 4.23304 11.3738 4.38771 11.2004C4.54237 11.0271 4.61971 10.7858 4.61971 10.4768C4.61971 10.1548 4.54437 9.90411 4.39437 9.72478C4.24404 9.54544 4.04337 9.45611 3.79271 9.45611C3.53437 9.45611 3.32604 9.54878 3.16837 9.73378C3.01071 9.91744 2.93171 10.1608 2.93171 10.4638C2.93171 10.7714 3.01071 11.0148 3.16837 11.1938C3.32604 11.3714 3.52804 11.4604 3.77471 11.4604Z" fill="white"/>
<path d="M2.151 7.66675H5.51567C6.15133 7.66675 6.66667 8.18208 6.66667 8.81775V12.1824C6.66667 12.8181 6.15133 13.3334 5.51567 13.3334H2.151C1.51533 13.3334 1 12.8181 1 12.1824V8.81775C1 8.18208 1.51533 7.66675 2.151 7.66675Z" fill="#1565C0"/>
<path d="M3.81775 12.1727C3.35108 12.1727 2.96775 12.022 2.66808 11.721C2.36842 11.42 2.21875 11.027 2.21875 10.542C2.21875 10.03 2.37075 9.61602 2.67508 9.30002C2.97942 8.98368 3.37742 8.82568 3.86975 8.82568C4.33508 8.82568 4.71375 8.97702 5.00575 9.27968C5.29942 9.58235 5.44608 9.98135 5.44608 10.4767C5.44608 10.9857 5.29408 11.396 4.98975 11.7074C4.68708 12.0177 4.29642 12.1727 3.81775 12.1727ZM3.83108 11.5337C4.08542 11.5337 4.29042 11.444 4.44542 11.265C4.60042 11.0857 4.67808 10.8367 4.67808 10.5174C4.67808 10.1847 4.60275 9.92568 4.45242 9.74035C4.30175 9.55502 4.10075 9.46268 3.84942 9.46268C3.59042 9.46268 3.38175 9.55835 3.22375 9.74968C3.06575 9.93935 2.98675 10.1907 2.98675 10.504C2.98675 10.8217 3.06575 11.073 3.22375 11.2584C3.38175 11.442 3.58408 11.5337 3.83108 11.5337Z" fill="white"/>
<defs>
<radialGradient id="paint0_radial_9033_803" cx="0" cy="0" r="1" gradientUnits="userSpaceOnUse" gradientTransform="translate(6.13921 9.20502) rotate(123.339) scale(7.25403 18.8251)">
<stop stop-color="#49DEFF"/>
<stop offset="0.724" stop-color="#29C3FF"/>
</radialGradient>
</defs>
</svg>
