<svg width="14" height="14" viewBox="0 0 14 14" fill="none" xmlns="http://www.w3.org/2000/svg">
<g clip-path="url(#clip0_9095_3225)">
<path d="M2.98096 8.82862C2.98096 9.63034 2.32711 10.2852 1.52529 10.2852C0.723457 10.2852 0.0688477 9.63034 0.0688477 8.82862C0.0688477 8.0269 0.723676 7.37207 1.52539 7.37207H2.98107L2.98096 8.82862ZM3.71475 8.82862C3.71475 8.0269 4.36958 7.37207 5.1713 7.37207C5.97302 7.37207 6.62785 8.02679 6.62785 8.82862V12.4746C6.62785 13.2764 5.97313 13.9312 5.1713 13.9312C4.36958 13.9312 3.71475 13.2764 3.71475 12.4746V8.82862Z" fill="#DE1C59"/>
<path d="M5.1713 2.98096C4.36958 2.98096 3.71475 2.32711 3.71475 1.52529C3.71475 0.723457 4.36958 0.0688477 5.1713 0.0688477C5.97302 0.0688477 6.62785 0.723676 6.62785 1.52539V2.98107L5.1713 2.98096ZM5.1713 3.71475C5.97302 3.71475 6.62785 4.36958 6.62785 5.1713C6.62785 5.97302 5.97313 6.62785 5.1713 6.62785H1.52529C0.723566 6.62785 0.0688477 5.97313 0.0688477 5.1713C0.0688477 4.36958 0.723676 3.71475 1.52539 3.71475H5.1713Z" fill="#35C5F0"/>
<path d="M11.019 5.1713C11.019 4.36958 11.6728 3.71475 12.4746 3.71475C13.2765 3.71475 13.9312 4.36958 13.9312 5.1713C13.9312 5.97302 13.2764 6.62785 12.4746 6.62785H11.019V5.1713ZM10.2852 5.1713C10.2852 5.97302 9.63034 6.62785 8.82862 6.62785C8.0269 6.62785 7.37207 5.97313 7.37207 5.1713V1.52529C7.37207 0.723566 8.02679 0.0688477 8.82862 0.0688477C9.63034 0.0688477 10.2852 0.723676 10.2852 1.52539V5.1713Z" fill="#2EB57D"/>
<path d="M8.82862 11.019C9.63034 11.019 10.2852 11.6728 10.2852 12.4746C10.2852 13.2765 9.63034 13.9312 8.82862 13.9312C8.0269 13.9312 7.37207 13.2764 7.37207 12.4746V11.019H8.82862ZM8.82862 10.2852C8.0269 10.2852 7.37207 9.63034 7.37207 8.82862C7.37207 8.0269 8.02679 7.37207 8.82862 7.37207H12.4746C13.2764 7.37207 13.9312 8.02679 13.9312 8.82862C13.9312 9.63034 13.2764 10.2852 12.4746 10.2852H8.82862Z" fill="#EBB02E"/>
</g>
<defs>
<clipPath id="clip0_9095_3225">
<rect width="14" height="14" fill="white"/>
</clipPath>
</defs>
</svg>
