<svg width="14" height="14" viewBox="0 0 14 14" fill="none" xmlns="http://www.w3.org/2000/svg">
<g clip-path="url(#clip0_9103_3636)">
<path d="M12.6328 0H1.36719C0.612111 0 0 0.612111 0 1.36719V12.6328C0 13.3879 0.612111 14 1.36719 14H12.6328C13.3879 14 14 13.3879 14 12.6328V1.36719C14 0.612111 13.3879 0 12.6328 0Z" fill="url(#paint0_linear_9103_3636)"/>
<path d="M11.5237 1.81982H8.56616C8.20373 1.81982 7.90991 2.11364 7.90991 2.47607V7.28857C7.90991 7.65101 8.20373 7.94482 8.56616 7.94482H11.5237C11.8861 7.94482 12.1799 7.65101 12.1799 7.28857V2.47607C12.1799 2.11364 11.8861 1.81982 11.5237 1.81982Z" fill="white"/>
<path d="M5.43382 1.81982H2.47632C2.11388 1.81982 1.82007 2.11364 1.82007 2.47607V10.7886C1.82007 11.151 2.11388 11.4448 2.47632 11.4448H5.43382C5.79626 11.4448 6.09007 11.151 6.09007 10.7886V2.47607C6.09007 2.11364 5.79626 1.81982 5.43382 1.81982Z" fill="white"/>
</g>
<defs>
<linearGradient id="paint0_linear_9103_3636" x1="700" y1="0" x2="700" y2="1400" gradientUnits="userSpaceOnUse">
<stop stop-color="#0091E6"/>
<stop offset="1" stop-color="#0079BF"/>
</linearGradient>
<clipPath id="clip0_9103_3636">
<rect width="14" height="14" fill="white"/>
</clipPath>
</defs>
</svg>
