<svg width="48" height="48" viewBox="0 0 48 48" fill="none" xmlns="http://www.w3.org/2000/svg">
<g clip-path="url(#clip0_9433_210)">
<path d="M24.015 0C25.3708 0.00249064 26.7042 0.11706 28.0004 0.333746V14.3062L37.9063 4.42588C39.0004 5.20294 40.0239 6.0672 40.9702 7.01116C41.917 7.95512 42.7861 8.97879 43.565 10.0697L33.6587 19.95H47.6677C47.8851 21.2427 48 22.5677 48 23.9226V23.955C48 25.3099 47.8851 26.6374 47.6677 27.9301H33.6563L43.565 37.808C42.7861 38.8989 41.917 39.9225 40.9731 40.8665H40.9702C40.0239 41.8105 39.0004 42.6772 37.9092 43.4518L28.0004 33.5714V47.5439C26.7066 47.7606 25.3732 47.875 24.0174 47.8779H23.9826C22.6263 47.875 21.2982 47.7606 20.0019 47.5439V33.5714L10.0961 43.4518C7.90839 41.9001 5.99577 39.9898 4.43736 37.808L14.3437 27.9301H0.334661C0.114891 26.6349 0 25.3024 0 23.9475V23.878C0.00227728 23.5264 0.0253012 23.0968 0.058371 22.6524L0.0685824 22.5187C0.166499 21.2679 0.334661 19.95 0.334661 19.95H14.3437L4.43736 10.0697C5.21394 8.97879 6.08063 7.9576 7.02692 7.01617L7.03169 7.01116C7.97608 6.0672 9.002 5.20294 10.0961 4.42588L20.0019 14.3062V0.333746C21.2982 0.11706 22.6292 0.00249064 23.9874 0H24.015ZM24.0126 17.955H23.9898C22.2068 17.955 20.4992 18.2813 18.9207 18.8741C18.3291 20.4457 18.0016 22.1493 17.9992 23.9276V23.95C18.0016 25.7283 18.3291 27.432 18.9231 29.0035C20.4992 29.5963 22.2068 29.9226 23.9898 29.9226H24.0126C25.7956 29.9226 27.5032 29.5963 29.0793 29.0035C29.6733 27.4295 30.0008 25.7283 30.0008 23.95V23.9276C30.0008 22.1493 29.6733 20.4457 29.0793 18.8741C27.5032 18.2813 25.7956 17.955 24.0126 17.955Z" fill="#FF4A00"/>
</g>
<defs>
<clipPath id="clip0_9433_210">
<rect width="48" height="48" fill="white"/>
</clipPath>
</defs>
</svg>
